<?xml version="1.0" encoding="UTF-8"?><svg width="616" height="569" viewBox="206.038 207.00631739573 616.11363106796 569.01736520855" xmlns="http://www.w3.org/2000/svg" xmlns:xlink="http://www.w3.org/1999/xlink" version="1.1"><svg xmlns="http://www.w3.org/2000/svg" xmlns:xlink="http://www.w3.org/1999/xlink" version="1.1" width="1030.19" height="983.03"><svg xmlns="http://www.w3.org/2000/svg" xmlns:xlink="http://www.w3.org/1999/xlink" id="ARF1T_x5F_Logo_x5F_general" version="1.1" viewBox="0 0 1030.19 983.03">
  <!-- Generator: Adobe Illustrator 29.7.1, SVG Export Plug-In . SVG Version: 2.1.1 Build 8)  -->
  <defs>
    <style>
      .st0 {
        fill: #ff2d00;
      }

      .st1 {
        fill: none;
      }

      .st2 {
        clip-path: url(#clippath);
      }
    </style>
    <clipPath id="clippath">
      <rect class="st1" x=".02" width="1030.18" height="983.04"/>
    </clipPath>
  </defs>
  <g id="ARF1T_x5F_Logo_x5F_general1" data-name="ARF1T_x5F_Logo_x5F_general">
    <g class="st2">
      <path class="st0" d="M218.3,775.04v-54.59h34.44v8.8h-23.54v14.89h20.96v8.78h-20.96v22.12h-10.9ZM310.4,775.04v-9.02h12.37v-35.61l-12.39,2.74v-9.08l16.13-3.62h7.16v45.57h12.37v9.02h-35.64ZM479.23,775.04v-45.79h-15.18v-8.8h41.25v8.8h-15.17v45.79h-10.9ZM559.24,775.04v-54.59h36.53v8.8h-25.64v13.45h22.04v8.75h-22.04v14.81h25.94v8.78h-36.83ZM688.48,775.04l-4.27-11.69h-22.62l-4.18,11.69h-11.32l21.28-54.59h11.6l21.3,54.59h-11.79ZM675.82,739.94c-1.18-3.42-2.14-6.64-2.87-9.65-.71,3.02-1.67,6.23-2.87,9.65l-5.32,14.69h16.31l-5.25-14.69ZM801.03,775.04v-29.91c0-2.97.18-6.66.55-11.08-1.56,3.88-3.29,7.37-5.21,10.47l-10.77,17.51h-6.85l-10.77-17.52c-1.72-2.72-3.43-6.17-5.14-10.33.36,4.41.53,8.05.53,10.93v29.93h-10.33v-54.59h11.56l13.73,22.71c1.68,2.83,3,5.48,3.96,7.95.86-2.26,2.18-4.92,3.96-7.99l13.73-22.68h11.38v54.59h-10.34.01ZM382.41,745.1c-7.19,0-12.54-4.96-12.54-12.11s5.35-12.15,12.54-12.15,12.54,4.96,12.54,12.15-5.31,12.11-12.54,12.11M391.84,732.99c0-5.35-3.68-9.43-9.43-9.43s-9.43,4.08-9.43,9.43,3.73,9.39,9.43,9.39,9.43-4.03,9.43-9.39M385.35,739.13l-2.59-3.95c-.48-.7-.75-.79-1.54-.79h-.83v4.74h-3.07v-12.63h5.18c3.03,0,5.13,1.18,5.13,3.77,0,1.89-.96,2.94-2.63,3.47.44.22.7.57.88.79l3.03,4.61h-3.56ZM382.06,732.02c1.58,0,2.41-.53,2.41-1.75,0-.92-.74-1.4-2.32-1.4h-1.76v3.16h1.67ZM811.43,540.16v-20.15h-24.07v-26.28h-23.28v95.8c0,8.8,2.21,15.51,6.58,19.94s11.17,6.68,20.22,6.68h20.55v-20.15h-15.04c-3.27,0-5.62-.72-6.98-2.14-1.25-1.3-2.06-4.58-2.06-8.36v-45.33h24.08ZM488.86,520l-24.07,70.04-24.07-70.04h-24.46l34.75,95.32h27.56l34.74-95.32h-24.45ZM622.92,485.44h23.28v129.88h-23.28v-129.88ZM726.14,567.76c0,6.03-.91,11.28-2.72,15.6-1.79,4.3-4.35,7.59-7.62,9.79-3.27,2.2-7.28,3.31-11.93,3.31-6.66,0-11.68-2.19-14.93-6.5-3.28-4.36-4.95-10.96-4.95-19.63v-50.32h-23.28v52.9c0,8.24,1.03,15.22,3.06,20.76,2.03,5.55,4.83,10.07,8.3,13.43,3.47,3.35,7.53,5.77,12.06,7.2,4.5,1.42,9.35,2.13,14.4,2.13,7.28,0,13.3-1.32,17.9-3.92,4.19-2.38,7.71-5.17,10.46-8.29l2.09,11.11h20.43v-95.32h-23.28v47.75h0ZM587.33,525.03c-7.34-4.07-16.05-6.13-25.89-6.13s-18.4,2.06-25.8,6.13c-7.4,4.08-13.22,9.83-17.29,17.11-4.07,7.27-6.13,15.89-6.13,25.61s2.06,18.16,6.13,25.43,9.89,13.03,17.29,17.11c7.4,4.07,16.08,6.13,25.8,6.13s18.55-2.06,25.89-6.13,13.13-9.83,17.2-17.1c4.07-7.28,6.13-15.83,6.13-25.43s-2.06-18.34-6.13-25.61c-4.07-7.28-9.86-13.04-17.2-17.11M575.03,593.14c-3.75,2.44-8.32,3.68-13.59,3.68s-9.69-1.24-13.5-3.68c-3.82-2.45-6.82-5.9-8.9-10.26-2.1-4.37-3.17-9.45-3.17-15.12s1.07-10.9,3.17-15.21c2.09-4.3,5.09-7.76,8.91-10.27,3.81-2.5,8.35-3.77,13.5-3.77s9.83,1.27,13.58,3.77c3.76,2.51,6.73,5.96,8.82,10.27,2.1,4.32,3.16,9.44,3.16,15.21s-1.06,10.74-3.16,15.12c-2.09,4.36-5.06,7.82-8.82,10.26M218.49,517.5h24.19v97.83h-24.19v-97.83ZM318.56,523.09c0-20.76-16.9-37.65-37.68-37.65h-62.38v20.89h59.41c9.4,0,17.19,7.39,17.36,16.47.09,4.55-1.62,8.84-4.8,12.08-3.19,3.25-7.44,5.03-11.98,5.03h-23.14c-.82,0-1.49.67-1.49,1.49v18.57c0,.32.1.62.28.87l39.27,54.48h28.74l-39.36-54.63c19.82-.99,35.77-17.65,35.77-37.61M392.95,524.48c-6.97-3.7-15.24-5.57-24.59-5.57s-17.73,2.06-24.88,6.13c-7.16,4.07-12.79,9.83-16.74,17.11-3.94,7.26-5.94,15.94-5.94,25.79s2.03,18.15,6.04,25.43c4.01,7.29,9.8,13.01,17.21,17.02,7.39,4,16.25,6.04,26.34,6.04,8,0,15.19-1.5,21.36-4.46,6.17-2.97,11.21-7.01,14.98-12.01,3.58-4.75,5.99-10.13,7.17-15.98l.13-.62h-23.15l-.11.38c-1.27,4.36-3.75,7.81-7.35,10.25-3.87,2.62-8.62,3.95-14.13,3.95-4.67,0-8.88-1-12.53-2.97-3.63-1.96-6.46-4.76-8.43-8.34s-3.09-7.9-3.33-12.79v-.76h69.93l.08-.43c.24-1.34.4-2.73.47-4.12.06-1.35.09-2.71.09-4.07-.12-9.24-2.19-17.36-6.13-24.15-3.96-6.8-9.5-12.12-16.47-15.82M384.46,542.43c3.98,3.35,6.45,8.1,7.36,14.15h-46.03c.53-3.92,1.83-7.32,3.87-10.1,2.15-2.92,4.89-5.22,8.17-6.82,3.28-1.61,6.88-2.43,10.7-2.43,6.46,0,11.82,1.75,15.93,5.21M717.83,208.11c-25.82,0-49.43,9.41-67.62,24.97-18.18-15.57-41.8-24.97-67.62-24.97s-49.43,9.41-67.62,24.97c-18.18-15.57-41.8-24.97-67.62-24.97s-49.43,9.41-67.62,24.97c-18.18-15.57-41.8-24.97-67.62-24.97-57.45,0-104.02,46.57-104.02,104.02s46.57,104.02,104.02,104.02c25.81,0,49.43-9.4,67.62-24.97,18.18,15.57,41.8,24.97,67.62,24.97s49.43-9.4,67.62-24.97c18.18,15.57,41.8,24.97,67.62,24.97s49.43-9.4,67.62-24.97c18.18,15.57,41.8,24.97,67.62,24.97,57.45,0,104.02-46.57,104.02-104.02s-46.57-104.02-104.02-104.02M650.22,360.67c-3.61-5.01-6.65-10.41-9.07-16.15-4.33-10.25-6.53-21.14-6.53-32.39s2.2-22.14,6.53-32.39c2.43-5.73,5.46-11.13,9.07-16.14,3.61,5.01,6.65,10.41,9.07,16.14,4.33,10.25,6.53,21.14,6.53,32.39s-2.2,22.14-6.53,32.39c-2.43,5.74-5.46,11.13-9.07,16.15M514.99,360.67c-3.61-5.01-6.65-10.41-9.07-16.15-4.33-10.25-6.53-21.14-6.53-32.39s2.2-22.14,6.53-32.39c2.43-5.73,5.46-11.13,9.07-16.14,3.61,5.01,6.65,10.41,9.07,16.14,4.33,10.25,6.53,21.14,6.53,32.39s-2.2,22.14-6.53,32.39c-2.43,5.74-5.46,11.13-9.07,16.15M379.75,360.67c-3.61-5.01-6.65-10.41-9.07-16.15-4.33-10.25-6.53-21.14-6.53-32.39s2.2-22.14,6.53-32.39c2.43-5.73,5.46-11.13,9.07-16.14,3.61,5.01,6.65,10.41,9.07,16.14,4.33,10.25,6.53,21.14,6.53,32.39s-2.2,22.14-6.53,32.39c-2.43,5.74-5.46,11.13-9.07,16.15M312.14,395.36c-11.24,0-22.14-2.2-32.39-6.53-9.91-4.19-18.81-10.19-26.46-17.84s-13.65-16.55-17.84-26.46c-4.33-10.25-6.53-21.14-6.53-32.39s2.2-22.14,6.53-32.39c4.19-9.91,10.19-18.81,17.84-26.46s16.55-13.65,26.46-17.84c10.25-4.33,21.14-6.53,32.39-6.53s22.14,2.2,32.39,6.53c7.57,3.2,14.54,7.46,20.82,12.7-13.79,17.65-22,39.86-22,63.99s8.22,46.34,22,63.99c-6.28,5.24-13.26,9.5-20.82,12.7-10.25,4.33-21.14,6.53-32.39,6.53M447.37,395.36c-11.24,0-22.14-2.2-32.39-6.53-7.57-3.2-14.54-7.46-20.83-12.7,13.79-17.65,22.01-39.86,22.01-63.99s-8.22-46.34-22.01-63.99c6.28-5.24,13.26-9.5,20.83-12.7,10.25-4.33,21.14-6.53,32.39-6.53s22.14,2.2,32.39,6.53c7.57,3.2,14.54,7.46,20.83,12.7-13.79,17.65-22.01,39.86-22.01,63.99s8.22,46.34,22.01,63.99c-6.28,5.24-13.26,9.5-20.83,12.7-10.25,4.33-21.14,6.53-32.39,6.53M582.6,395.36c-11.24,0-22.14-2.2-32.39-6.53-7.57-3.2-14.54-7.46-20.82-12.7,13.79-17.65,22.01-39.86,22.01-63.99s-8.22-46.34-22.01-63.99c6.28-5.24,13.26-9.5,20.82-12.7,10.25-4.33,21.14-6.53,32.39-6.53s22.14,2.2,32.39,6.53c7.57,3.2,14.54,7.46,20.83,12.7-13.79,17.65-22,39.86-22,63.99s8.22,46.34,22,63.99c-6.28,5.24-13.26,9.5-20.83,12.7-10.25,4.33-21.14,6.53-32.39,6.53M776.68,370.98c-7.65,7.65-16.55,13.65-26.46,17.84-10.25,4.33-21.14,6.53-32.39,6.53s-22.14-2.2-32.39-6.53c-7.56-3.2-14.54-7.46-20.82-12.7,13.79-17.65,22-39.86,22-63.99s-8.22-46.34-22-63.99c6.28-5.24,13.26-9.5,20.82-12.7,10.25-4.33,21.14-6.53,32.39-6.53s22.14,2.2,32.39,6.53c9.91,4.19,18.81,10.19,26.46,17.84s13.65,16.55,17.84,26.46c4.33,10.25,6.53,21.14,6.53,32.39s-2.2,22.14-6.53,32.39c-4.19,9.91-10.19,18.81-17.84,26.46"/>
    </g>
  </g>
</svg></svg><style xmlns="http://www.w3.org/2000/svg">@media (prefers-color-scheme: light) { :root { filter: none; } }
@media (prefers-color-scheme: dark) { :root { filter: none; } }
</style></svg>