<?xml version="1.0" encoding="UTF-8"?>
<svg id="Logos" xmlns="http://www.w3.org/2000/svg" version="1.1" viewBox="0 0 199.3864487 182.5550803">
  <!-- Generator: Adobe Illustrator 29.7.0, SVG Export Plug-In . SVG Version: 2.1.1 Build 138)  -->
  <defs>
    <style>
      .st0 {
        fill-rule: evenodd;
      }

      .st0, .st1 {
        fill: red;
      }
    </style>
  </defs>
  <path class="st0" d="M99.6586,0c-29.005789,0-52.5001494,23.4992046-52.5001494,52.5055374,0,1.0360982.0356395,2.0381881.0750521,3.0402615h-6.8542107c-.383878,0-.5776953.2300005-.7326602.5037472-.114992.2694132-6.2014467,10.9758982-6.3558679,11.2453279-.1144648.2683257-.1144648.4232906.1938338.4232906h15.9074895c6.5108163,21.5684786,26.5383786,37.2864512,50.2665128,37.2864512,29.005789,0,52.4985347-23.4981336,52.4985347-52.4990784,0-29.0063328-23.4927457-52.5055374-52.4985347-52.5055374M62.1432192,67.7181646h13.9816077l-6.7435191,11.6696895c-3.0008489-3.4289837-5.4682428-7.3579413-7.2380886-11.6696895M99.6586,92.9861276c-11.0174858,0-20.9562148-4.3911172-28.2736725-11.519058h11.3646533s32.6610001-57.5456618,32.7749211-57.7735039c.1598256-.2348283.0793691-.3887222-.1490003-.3887222h-13.3288603c-.2694132,0-.3093696.0793526-.3849655.1943611-.0793691.113921-18.4126813,32.0465943-18.4126813,32.0465943h-23.9570472c-.0799128-1.0020734-.113921-2.0041634-.113921-3.0402615,0-22.3421663,18.0984511-40.4870491,40.4805737-40.4870491,11.4002763,0,21.7228998,4.7409869,29.0808411,12.3677978-3.1941225,5.3926634-17.5266874,29.7330613-19.4514817,33.2770535-1.1149235-2.5813314-6.2792011-2.078128-8.9366556-2.1175407-1.1564946,1.9242506-6.5842372,12.1723657-6.5842372,12.1723657,0,0,3.0008324-.0388854,5.6976996,0,2.6207441.0410274,2.9306574,2.7724466,1.8886276,4.506653-1.0415026,1.7336627-5.3186988,9.242252-5.3186988,9.242252h13.7526947s16.8728525-29.4652629,26.464414-46.2198774c2.5025061,5.2393297,3.8868428,11.0909232,3.8868428,17.2583452,0,22.340568-18.1378637,40.4805902-40.4800465,40.4805902"/>
  <g>
    <g>
      <polygon points="2.2232309 111.6249335 .0706952 119.9822009 22.095799 119.9822009 13.2483891 154.3323777 30.5744486 154.3323777 39.4218585 119.9822009 61.4081135 119.9822009 63.5994831 111.6249335 2.2232309 111.6249335"/>
      <path d="M125.7021278,129.4012506h-28.8767957l-2.0724862,8.0464568h12.986897l-2.246964,7.6062089h-22.9800569c-4.989905,0-6.7555131-1.1241441-5.8675545-4.571663.9984692-3.8765785,2.7377369-11.0533833,2.7377369-11.0533833,2.1203586-7.8082793,5.2225124-9.4467559,23.2850219-9.4467559h25.4602054l2.1525358-8.3572674s-23.8178616.0382936-29.9944802.0382936c-24.2746911,0-34.0275157,2.7874633-37.2033325,14.7082602l-4.6551364,17.6918005c-1.8427651,7.0344035,4.0291445,10.0988569,9.9627124,10.2691766h50.8902911l6.4214059-24.9311271Z"/>
      <path class="st1" d="M185.1240509,111.6248475h-46.2278833l-10.9998969,42.7075301h17.3260684l8.7723735-34.350247h24.1230619c4.2907481,0,5.5294553.9659702,4.7019773,4.1785772-.3027264,1.1753173-.1086958.4220408-.5259743,2.0420519-.7606774,2.9535133-2.1237829,3.2637693-7.093027,3.2637693h-17.0134957l17.5300098,24.8658486h16.5242038l-12.2774745-17.4152003,1.1352885.0016089c12.0555138,0,14.902262-4.8720035,16.2783029-9.1723405.0673798-.0621027,1.6950492-6.3815813,1.6950492-6.3815813,1.644273-6.3838337-3.1974836-9.740017-13.9485836-9.740017Z"/>
    </g>
    <polygon points="199.386185 160.1652313 96.1073764 160.1652313 96.1073764 160.1652313 .7567905 160.1652313 .0707553 162.1494833 102.9276889 162.1494833 102.9276889 162.1490838 198.7006381 162.1490838 199.386185 160.1652313"/>
    <g>
      <polygon points="14.3919343 173.8280616 2.6454572 173.8280616 2.6454572 167.9116879 0 167.9116879 0 182.5550803 2.6454572 182.5550803 2.6454572 176.1882388 14.3919343 176.1882388 14.3919343 182.5550803 17.0172945 182.5550803 17.0172945 167.9116879 14.3919343 167.9116879 14.3919343 173.8280616"/>
      <path d="M30.0573349,167.9116879h-2.7537852l-8.5902608,14.5360448-.0632322.1073476h3.0915136l1.7822647-3.0709263h10.3985046l1.8082438,3.0709263h3.0522998l-8.5809476-14.4027181-.1446007-.2406744ZM32.5331927,177.1239768h-7.6412882l3.7944199-6.5320294,3.8468683,6.5320294Z"/>
      <path d="M51.7694949,167.9116879h-2.7542754l-8.5902608,14.5360448-.0632322.1073476h3.0915136l1.7822647-3.0709263h10.3985046l1.8082438,3.0709263h3.0518096l-8.5804574-14.4022279-.1441105-.2411645ZM54.2448625,177.1239768h-7.6412882l3.7944199-6.5320294,3.8468683,6.5320294Z"/>
      <g>
        <path d="M115.4102156,168.6503768c-.1681289-.1646977-.3676289-.2965539-.5945784-.3916473-.4519384-.1896965-1.0019112-.1887161-1.4509085,0-.2274397.0946032-.4293905.2264594-.5999703.3916473s-.3078279.3637075-.4078229.590657c-.1009754.2303807-.1499926.4710551-.1499926.7357479,0,.268124.0504877.5195821.1499926.7465317.0995049.2279299.236753.42792.4073328.5945784.1725405.1691093.3749814.3014557.6009506.3931178.2249889.0926425.4690944.1392088.7254543.1392088.2548893,0,.4985047-.0465663.7244739-.1392088.225479-.0921523.4254691-.2244987.5950686-.393608.1681289-.1656781.3043967-.365178.4053721-.5940882.0995049-.2269495.1499926-.4784077.1499926-.7465317,0-.2646928-.0490172-.5053671-.1499926-.736238-.1009754-.2269495-.2377333-.4254691-.4053721-.5901668ZM115.0739577,171.038984l-.57056-.8798584c.1230331-.0274496.2308709-.0794078.3210625-.1548943.1215626-.1014656.1833243-.2597911.1833243-.4695846,0-.2244987-.0691142-.3950785-.205382-.5068376-.1333267-.1117592-.3298856-.1656781-.6014408-.1656781h-.8827994v2.2430262h.4690944v-.904367h.2352825l.5730108.904367h.3833143c-.1029361.0877408-.2063623.1759717-.3333168.2318513-.3431203.1485221-.7754518.1465614-1.115631,0-.1720503-.0745061-.3230232-.1784225-.4485072-.3092984-.1274447-.131366-.2244987-.2833193-.2970441-.4656632-.0715651-.1759717-.108328-.3730207-.108328-.5852651,0-.2058722.0367629-.39949.1088181-.5754617.0720553-.1789127.1691093-.3293955.2965539-.4597812.1264643-.1294054.2774372-.2328316.4485072-.3068475.1735208-.0740159.362237-.1117592.5607565-.1117592.1960687,0,.3828242.0377432.5548745.1117592.1686191.0740159.3181215.1774422.445076.3068475.1279348.131366.2284201.2862603.2975343.4597812.0725454.1803832.1093083.3740011.1093083.5754617,0,.2078328-.0367629.4048819-.1093083.5857553v.0004902c-.0696044.1759717-.1695994.3323365-.2980245.4646829-.0044115.0049017-.0117641.0066173-.0161757.011274ZM114.5053584,169.6758162c-.0225479.034312-.0519582.0593108-.0921523.0764668-.0446056.0196069-.094113.0318612-.1495024.0362727-.0666634.0039214-.1347972.0063722-.2063623.0063722h-.2700847v-.5269347h.3612566c.0519582,0,.1034263.0044115.1553845.0107838.0490172.0078427.0906818.0210774.1269545.0401941.0323513.0166658.0583304.0401941.0789177.0710749.0191167.0289201.0289201.0740159.0289201.1294054,0,.0705847-.0107838.1220528-.0333317.1563648Z"/>
        <path d="M74.4097952,174.123145c-.8798584-.0931326-1.5567856-.1480319-2.0131356-.1637174-.4558598-.0137248-.9636778-.0205872-1.509239-.0205872h-4.7090805c-.7725108,0-1.352384-.1230331-1.7239342-.3656682-.3078279-.2019508-.4641927-.6328118-.4641927-1.2813091,0-.4014507.0519582-.7411398.1539139-1.0087736.0735258-.1975392.2617517-.3597861.5749715-.496544.385275-.1676388,1.038674-.2916522,1.9420607-.3676289.952894-.0803882,1.8788285-.1210724,2.7523147-.1210724h.5730108c1.1577858,0,2.1150913.0460761,2.8449571.1367579.8607417.1078378,1.238174.2289102,1.4048324.3122394.1681289.079898.2911621.2156756.3867456.4269396.11421.2529286.1720503.6725157.1720503,1.2465069v.4896816h2.6459474v-.4896816c0-1.3445413-.3097886-2.3758627-.9200525-3.0650443-.6107541-.6901619-1.4925731-1.101416-2.6199683-1.2219983-1.0190672-.1058771-1.7577561-.1691093-2.1949893-.1887161-.4494875-.0220577-1.1827846-.0328415-2.1802842-.0328415-1.2053325,0-2.3116502.0372531-3.2885626.111269-1.0097539.0774471-1.9043175.2558697-2.659182.5318364-.8352528.3058672-1.4396346.8279002-1.7954993,1.5504134-.3313561.6739862-.4989949,1.5136505-.4989949,2.4954646,0,1.3170916.4215477,2.2773382,1.2533693,2.8532901.775942.539189,1.8641234.8122147,3.2331732.8122147l3.6728573.1004852h3.1277863c1.2420953,0,1.8121652.1789127,2.0719562.3293955.2833193.1622469.4391939.6700649.4391939,1.4298311,0,.6274199-.128425,1.0675942-.3813537,1.3082685-.188226.1794029-.6386939.4210576-1.7151111.5558548-.9435807.1181314-2.131267.1784225-3.5311977.1784225-.858781,0-1.7445214-.0245086-2.6336931-.0720553-.8563301-.0475467-1.5440412-.1480319-2.0445066-.2990048-.2622419-.0794078-.5935981-.2244987-.6828093-.4646829-.1088181-.2901817-.1642076-.7715304-.1642076-1.4308115v-.7881963h-2.6454572v.490662c0,1.5974699.2534188,2.7067287.7754518,3.3905184.5308561.6965341,1.4028717,1.1293558,2.590558,1.2857206,1.064163.1392088,1.8714759.2210675,2.3998811.2436154.5156607.0205872,1.2974848.0308808,2.3229242.0308808h1.0847502c1.0489677,0,2.0317621-.0411744,2.9219141-.1220528.9288756-.0843095,1.7386394-.2764569,2.4072337-.5715403.7283953-.3200822,1.25533-.8112343,1.5660989-1.4597316.2896915-.6063425.4367431-1.3616973.4367431-2.2449869,0-1.3754221-.3230232-2.3802743-.9597564-2.987107-.616146-.5891865-1.4303213-.94162-2.419488-1.0465168Z"/>
        <polygon points="87.1763198 182.5550803 89.8222671 182.5550803 89.8222671 176.2294132 100.6315357 176.2294132 100.6315357 173.869236 89.8222671 173.869236 89.8222671 170.2924524 101.2055269 170.2924524 101.2055269 167.9116879 87.1763198 167.9116879 87.1763198 182.5550803"/>
        <polygon points="120.507022 170.2924524 127.386093 170.2924524 127.386093 182.5550803 130.0320404 182.5550803 130.0320404 170.2924524 136.9517958 170.2924524 136.9517958 167.9116879 120.507022 167.9116879 120.507022 170.2924524"/>
        <polygon points="141.283444 176.1882388 152.7279752 176.1882388 152.7279752 173.8280616 141.283444 173.8280616 141.283444 170.2924524 153.1573657 170.2924524 153.1573657 167.9116879 138.6379868 167.9116879 138.6379868 182.5550803 153.3004959 182.5550803 153.3004959 180.1949031 141.283444 180.1949031 141.283444 176.1882388"/>
        <path d="M166.3410265,167.9116879h-2.7537852l-8.5902608,14.5360448-.0632322.1073476h3.0910234l1.7827548-3.0709263h10.3980144l1.8082438,3.0709263h3.0518096l-8.5799672-14.4027181-.1446007-.2406744ZM168.8163941,177.1239768h-7.6407981l3.7939297-6.5320294,3.8468683,6.5320294Z"/>
        <polygon points="195.9753431 167.9116879 188.0468142 179.250342 180.2290642 168.0307997 180.1467153 167.9116879 176.6983567 167.9116879 176.6983567 182.5550803 179.3438139 182.5550803 179.3438139 171.3752419 187.1081352 182.5550803 188.9555928 182.5550803 196.7405013 171.3718107 196.7405013 182.5550803 199.3864487 182.5550803 199.3864487 167.9116879 195.9753431 167.9116879"/>
        <polygon points="108.8345608 167.9141388 104.5024225 171.0041818 104.4475232 171.0429054 105.8567671 173.2918136 108.5198705 171.3232837 108.5198705 182.5550803 111.1197418 182.5550803 111.1197418 167.9116879 108.980632 167.9116879 108.8345608 167.9141388"/>
      </g>
    </g>
  </g>
</svg>