<svg xmlns="http://www.w3.org/2000/svg" viewBox="-3.0 -3.0 1006.0 471.0" width="461.8802153517006" height="216.50635094610965">
<g id="deeditor_bgCarrier" stroke-width="0">
    <rect id="dee_c_e" x="-3" y="-3" width="1006" height="471" rx="0" fill="#001e3c"/>
  </g>
  <defs fill="#000000">
    <style>
      .cls-1 {
        fill: #ea1d2d;
      }

      .cls-2 {
        fill: #fff;
      }

      .cls-3 {
        fill: #fcd700;
      }
    </style>
  </defs>
  <g>
    <g>
      <path class="cls-2" d="M82.85,418.27c.02-12.87-9.08-20.65-24.35-20.83H.09l-.09,67.94h9.89l.04-24.75h47.42c8.55,0,13.65,4.23,13.64,11.31l-.03,13.44h10.09v-13.34c.02-7.26-3.7-12.85-10.33-15.76,7.65-2.97,12.11-9.48,12.12-18.02M58.53,431.71H9.94l.03-25.32h48.59c13.29,0,14.3,9.69,14.3,12.66-.01,2.97-1.05,12.66-14.34,12.66M257.03,410.84c-5.06-10.13-10.83-14.26-19.93-14.26s-15.15,4.27-20.05,14.28l-26.11,52.85-.83,1.68h10.66l.33-.66,9.28-18.82h53.24l9.24,18.82.31.66h10.75l-.83-1.68-26.06-52.86ZM214.93,436.97l11.61-23.47c2.73-5.6,5.79-7.88,10.56-7.88s7.74,2.28,10.47,7.88l11.53,23.47h-44.17ZM387.9,431.42c-.03,22.98,10.03,33.78,31.7,33.97h53.67v-9.61s-53.04,0-53.04,0c-16.31,0-22.36-6.61-22.33-24.36.03-17.75,6.09-24.36,22.39-24.36h53.05v-9.62s-53.67,0-53.67,0c-21.94.2-31.74,10.68-31.77,33.98M585.65,465.39h9.89l.09-67.93h-9.89l-.09,67.93ZM790.33,455.59c-9.43-.03-11.7-3.04-28.86-25.86l-.75-1.03c-18.47-24.52-23.45-31.11-39.6-31.26h-8.17l-.09,67.94h9.79l.07-58.14c8.93.03,11.15,2.89,27.93,24.68l2.08,2.68c18.6,24.15,23.61,30.63,39.21,30.77h8.17l.09-67.94h-9.81l-.07,58.15ZM990.11,430.34l-.04,25.44h-43.55c-16.29,0-22.34-6.64-22.33-24.46.03-17.68,6.1-24.26,22.39-24.26h52.78v-9.62s-53.39,0-53.39,0c-21.65.19-31.75,10.96-31.77,33.88-.03,23.04,10.04,33.87,31.69,34.07h54.08l.04-35.04h-9.89Z" fill="#000000"/>
      <path class="cls-2" d="M256.42,353.74l-10.16-.04c-112.03,0-246.26,2.35-246.26,4.13s110.84,6,246.28,6l22.54.04,474.74-.04,10.16.04c112.03,0,246.27-2.34,246.27-4.12s-110.84-6.01-246.28-6.01l-22.54-.04-474.76.04Z" fill="#000000"/>
      <path class="cls-2" d="M431.71,83.87h66.07l-34.83-55.81-64.2,100.82h-29.27L447.63,7.88c3.34-4.91,9.07-7.88,15.31-7.88s11.72,2.88,15.06,7.67l78.09,121.21h-29.2l-13.73-22.53h-66.9l-14.55-22.47ZM734.8,106.34l.14-105.1h-24.81l-.15,115.43c0,3.14,1.34,6.22,3.66,8.45,2.37,2.42,5.61,3.74,9.02,3.74h112.84l14.73-22.53h-115.42M325.13,87.55c24.11,0,43.52-19.34,43.56-43.17.03-23.82-19.34-43.14-43.45-43.14h-108.37l-.16,127.63h24.76l.14-105.07h81.95c11.5,0,20.82,9.19,20.8,20.58-.02,11.37-9.36,20.73-20.85,20.73l-69.84-.06,73.89,63.83h35.94l-49.63-41.32h11.26M64.35,128.87h74.86c35.61,0,64.33-28.51,64.37-63.77.05-35.3-28.59-63.87-64.2-63.87h-74.86C28.95,1.24.05,29.81,0,65.11c-.04,35.26,28.78,63.77,64.35,63.77M137.53,106.41h-71.51c-23.01,0-41.62-18.54-41.6-41.31.02-22.87,18.7-41.31,41.71-41.31h71.51c23.08,0,41.68,18.44,41.66,41.31-.03,22.77-18.68,41.31-41.77,41.31M607.8,128.87h76.43l14.49-22.46h-89.2c-23.12,0-41.72-18.54-41.68-41.31.03-22.87,18.68-41.31,41.8-41.31h72.61l14.67-22.56h-88.94c-35.6,0-64.55,28.57-64.59,63.87-.05,35.26,28.83,63.77,64.43,63.77M910.7,106.41c-19.08,0-35.15-12.7-40.09-30.06h105.84l14.62-22.5h-120.42c4.96-17.41,21.08-30.06,40.16-30.06h72.67l14.55-22.56h-88.85c-35.53,0-64.4,28.57-64.44,63.87-.05,35.26,28.75,63.77,64.28,63.77h76.44l14.55-22.46h-89.3" fill="#000000"/>
      <g>
        <g>
          <path class="cls-2" d="M226.63,174.34h39.41s0,137.11,0,137.11h-46.21c-2.19.48-4.81.84-7.7.77-16.19,0-30.53-6.54-38.05-24.87-10.49,19.41-26.56,26.6-44.73,26.6-6.42,0-11.65-.77-16.04-2.5.16.09-113.32,0-113.32,0v-131.61s55.07,0,55.07,0c21.23,0,41.35,16.38,41.35,42.73,0,11.33-5.41,20.24-5.41,20.24,7.61-14.78,23.42-21.81,38.87-21.73,15.91,0,32.64,4.8,42.35,29.25,7.39-18.35,17.73-28.51,41.1-28.34,5.33,0,7.81.75,13.3,2.14v-49.8Z" fill="#000000"/>
          <path class="cls-2" d="M459.24,174.63h78.29v136.73s-98.93,0-98.93,0c-6.92,2.76-14.47,4.23-19.91,4.23-12.74.07-34.71-4.3-41.02-24.96-4.59,11.08-23.97,20.81-33.07,20.72h-63.42v-130.4h51.46c20.86,0,40.82,10.29,40.73,37.06.04,1.91-.33,4.7-.99,7.53h86.87s0-50.92,0-50.92Z" fill="#000000"/>
        </g>
        <g>
          <path class="cls-1" d="M432.01,231.62v41.52c0,6.92-5.89,12.52-13.16,12.52s-13.16-5.61-13.16-12.52v-41.52h-22.86v45.93c0,15.55,16.09,28.16,35.94,28.16s35.94-12.61,35.94-28.16v-45.93s-22.7,0-22.7,0ZM506.29,182.27v120.86h23.03v-120.86h-23.03ZM467.36,303.13h23.03v-120.86h-23.03v120.86ZM354.66,240.36c6.3-5.88,10.15-13.75,10.15-22.41,0-7.84-3.02-15.05-8.3-20.7-5.49-6.05-15.22-9.44-28.35-9.44h-39.36v115.32h50.83c19.48-.32,35.17-15.03,35.17-33.07,0-13.13-4.63-22.49-20.15-29.69ZM335.38,283.1h-22.03v-75.48h15.36c6.75,0,12.22,6.17,12.22,12.92s-5.47,12.22-12.22,12.22h-8v20.73h14.66c8.18,0,14.36,6.6,14.36,14.78-.29,8.45-5.47,14.28-14.36,14.84Z" fill="#000000"/>
          <path class="cls-1" d="M85.88,221.87c0-18.81-15.54-34.06-34.71-34.06-.58,0-42.11,0-42.11,0v115.32h24.5v-95.51h12.52c9.05,0,15.92,6.75,15.92,15.08s-7.33,15.09-16.38,15.09h-5.69v27.58l24.47,37.76h28.88l-33.84-48.17c15.18-3.64,26.44-17.07,26.44-33.08ZM128.71,228.64c-21.02,0-38.05,17.25-38.05,38.52s17.04,38.55,38.06,38.55c16.05,0,28.56-7.27,35.01-18.63l-18.69-8.63c-2.38,5.15-7.95,8.77-14.43,8.75-8.96-.02-15.59-6.59-15.67-14.35,0-.54,0-.78,0-.78h50.72c.16-1.57.23-3.19.22-4.84.35-24.93-16.14-38.6-37.16-38.6ZM114.85,258.82c0-7.77,6.3-14.07,14.07-14.07s14.07,6.3,14.07,14.07h-28.13ZM257.32,303.13l-.03-120.86h-22.95v57.19c-6.11-6.05-14.25-9.71-23.14-9.71-19.01,0-34.43,16.86-34.43,37.67s15.41,37.67,34.43,37.67c8.99,0,17.11-3.82,23.24-9.99v8.04h22.88ZM217.73,285.46c-9.33,0-16.9-8.28-16.9-18.5s7.57-18.5,16.9-18.5,16.9,8.28,16.9,18.5-7.57,18.5-16.9,18.5Z" fill="#000000"/>
        </g>
        <circle class="cls-3" cx="789.81" cy="241.29" r="79.71" fill="#000000"/>
        <g>
          <path class="cls-2" d="M998.88,294.67v-.03c-.11-.2-.24-.49-.3-.64-.08-.42-.15-.92-.21-1.44v-.08c-.17-1.26-.33-2.55-.87-3.81-.84-1.96-2.74-3.41-4.85-3.83-.16-.87-.53-1.51-.76-1.84-1.32-1.91-3.32-3.24-4.8-4.23-.41-.27-.88-.58-1.05-.73l-.41-.31c-.98-.78-2.15-1.19-3.4-1.19-2.07,0-4.28,1.29-5.63,2.99-.23-.6-.61-2.01-.83-2.81-.3-1.1-.58-2.13-.87-2.94l-.04-.11c-.04-.1-.08-.2-.13-.34-.55-1.47-1.83-4.91-5.68-5.55-1.05-.17-2.08-.21-3-.25-1.87-.08-2.59-.37-2.84-.52.05-.17.14-.43.31-.85.35-.84.59-1.57.79-2.34.78-2.66,1.33-6.54.71-9.93.9.13,1.9.22,2.9.22,3.16,0,6.48-.68,9.34-1.91l.16-.07c5.65-2.75,11.23-9.04,10.94-16.91l-.02-.22c-.65-6.8-4.44-13.24-11.55-19.6,1.84-.49,3.82-1.11,5.62-2.36,5.14-3.45,7.36-9.64,6.09-16.97l-.11-.49c-.82-3.76-3.59-4.05-4.42-4.05-1.1,0-2.17.43-3.01,1.21-.17.16-.35.32-.53.5-.43.41-.92.87-1.32,1.1-1.1.65-2.7.99-4.4,1.34-1.28.27-2.73.57-4.13,1.06-6.37,2.2-10.4,5.63-11.97,10.22-.95,2.78-.53,6.15,1.14,9.23l.13.22c1.95,3.09,4.69,5.71,7.12,8.04,3.44,3.29,6.68,6.4,7.35,10.14.11.68.32,1.93-1.95,3.65-.9.5-2.14.78-3.53.78-2.02,0-4.3-.57-6.08-1.53l-.1-.05c-2.8-1.4-5.62-3.28-8.38-5.13-4.43-2.96-9.01-6.02-14.33-7.76-2.46-1.08-5.06-1.6-7.36-2.07-2.92-.59-5.68-1.15-7.63-2.68l-.27-.2c-.85-.55-1.72-1.19-2.57-1.8-2.56-1.86-5.47-3.95-8.97-4.88-1.36-.45-2.63-.63-3.67-.78-1.33-.19-2.11-.32-2.66-.71-.57-.41-1.14-.83-1.72-1.25l-.09-.06c-2.4-1.75-4.88-3.57-7.51-4.88-4.43-2.21-8.97-3.31-13.96-4.4-.26-.06-.94-.89-1.39-1.44-.75-.91-1.67-2.03-2.95-2.93-3.73-2.94-7.96-5.64-13.67-5.64-.51,0-1.03.02-1.48.06-3.43.23-6.35,2.45-8.25,4.1-4.19,3.66-8.74,6.96-13.15,10.15-6.82,4.94-13.87,10.04-20.03,16.76-6.45,6.68-8.8,14.99-10.87,22.32-.3,1.05-.6,2.11-.92,3.21-.56,2.02-1.08,4.08-1.57,6.09-2.53,10.17-4.93,19.78-14.43,25.96-1.53.99-2.35,2.71-2.16,4.49.19,1.79,1.42,3.36,3.11,3.99.75.28,2.06.58,3.65.58.06,1.05.45,2.03,1.13,2.82.67.77,1.93,1.72,4.13,1.81h.17c6.56,0,11.21-3.76,15.23-7.66,1.44,1.24,3.21,2.57,5.62,3.07l.65.12.72-.08c2.38-.33,4.47-.59,6.56-.5,1.92.6,3.89,1.34,5.85,2.08,1.5.56,3.04,1.15,4.62,1.68l.78.24.69-.03c4.29-.16,6.69-3.94,7.59-5.36l.17-.27.13-.3c.14-.34.26-.68.34-1.01,0,.01,0,.02.01.03l.26.9c.56,1.99,1.14,4.05,2.44,5.57,1.21,1.41,2.86,2.16,4.77,2.16h0c.71,0,1.34-.1,1.8-.17.08-.01.15-.02.22-.03.07.07.14.15.2.22.75.81,1.88,2.02,3.73,2.58,1.74.58,3.5,1.04,5.23,1.49,2.09.55,4.26,1.12,6.21,1.88l.22.08c1.54.5,3.23.98,5.02.95,2.78,0,4.5-1.09,5.94-2.25,2.36-1.9,3.3-3.99,3.84-6.01.36-.05.76-.15,1.29-.32,2.91-.97,5.76-6.32,5.79-6.38.2-.38.43-.75.64-1.06.72-1.09,1.08-2.24,1.06-3.41-.04-2.82-2.22-5-5.04-5.08l-.46-.02c-.23,0-5.71-.03-7.29,0h-.14c-.69.04-1.31.17-1.89.36-.03-.04-.06-.09-.1-.13-.42-.52-.87-1.69-1.47-1.99.04-.04.17-.07.21-.11l1.53.16c.98.1,1.98.15,2.98.15,3.49,0,6.65-.57,9.72-1.12,2.7-.49,5.42-.22,8.14-.22.28,0,.56,0,.84.02h.15c1.17,0,2.35.11,3.62.22,1.28.12,2.72.25,4.21.25.54,0,1.04-.02,1.54-.05,1.43-.07,2.78-.31,4.01-.71.12.68.27,1.52.47,2.56l.2.86c.71,3.07,1.78,7.7,7.28,11.28l.83.54c2.55,1.67,4.09,2.68,7.91,3.26.98.15,2.81.11,3.97-.17,4.81-1.04,10.18.21,14.48,3.35l.38.24c.35.2.83.6,1.3,1.01.99.84,2.22,1.87,3.88,2.49,1.08.43,2.25.65,3.48.66h.08c2.36,0,3.64-.72,4.59-1.25,0,0,.01,0,.02,0,.15.21.32.44.46.64.68.95,1.51,2.12,2.73,3.24,2.33,2.22,5.22,2.48,7.2,2.48.93,0,1.82-.06,2.6-.12.28-.02.59-.03.88-.05.55-.03,1.06-.05,1.39-.09.58-.07.97-.15,1.16-.2,1.02.74,2.09.85,2.57.85.41,0,.83-.06,1.23-.18l4.56-1.5c1.29-.4,2.34-1.34,2.87-2.54.98-2.21,0-4.29-.7-5.81ZM855.08,272.04c-.12-.18-.23-.35-.35-.52-.14-.21-.29-.43-.46-.7-.68-1.01-1.27-1.89-1.55-2.67,1.37.14,2.82.28,4.33.34l-1.96,3.55Z" fill="#000000"/>
          <path class="cls-2" d="M787.27,278.05l-2.4-1.2c-2.07-1.25-3.44-3.56-4.91-6.03-.69-1.16-1.4-2.35-2.18-3.45-.75-1.09-1.79-2.03-2.63-2.78-.15-.13-.34-.31-.5-.46-2.57-7.06-5.3-15.3-5.96-24.26-.17-2.24-1.47-6.06-2.9-8.52l-.05-.08c-4.09-6.66-13.58-17.71-14.13-18.3-.36-.38-.75-.76-1.09-1.1l-.25-.24-16.91-14.07-.25-.19c-3.56-2.5-4.85-3.07-7.62-4.08-4.34-1.58-10.39-1.36-14.75.51l-.29.14c-1.47.78-2.83,1.65-4.16,2.49-2.02,1.29-3.92,2.51-5.86,3.15l-.36.14c-1.65.74-3.55,1.33-5.38,1.89-4,1.24-8.53,2.64-12.27,6.07-.92.84-1.67,1.55-2.3,2.15-.9.85-1.76,1.66-2.12,1.9-.1.01-.31.02-.73.02-6.33,0-11.04,1.64-15.74,5.47l-.16.13c-2.86,2.6-5.68,5.02-8.65,6.05-1.22.42-2.76.6-4.46.77h-.17c-2.83.26-3.45.33-6.19.98-4.81,1.11-9.47,4.73-13.21,7.65-1.66,1.29-2.73,2.1-3.19,2.39-.33.21-.73.47-1.06.66-4.11,2.41-7.67,4.49-11.95,4.49h-.21c-2.34-.21-4.54-1.84-5.29-3.93-.7-2.72.12-5.43,2.34-7.64,1.43-1.43,3.11-2.86,4.75-4.25,2.9-2.47,5.64-4.8,7.69-7.55,3.21-4.3,2.88-11.03-.73-14.99-2.77-3.04-7.57-4.52-11.44-5.47l-.33-.08c-.18-.05-.44-.09-.7-.14l-.23-.04c-.44-.08-.86-.16-1.29-.24-.74-.13-1.45-.26-2.12-.42-1.32-.37-2.68-1.31-4.11-2.3-1.02-.71-2.08-1.44-3.27-2.08l-3.14-1.69-1.95,2.99c-1.48,2.27-2.1,4.81-1.89,7.75l.02.21c.68,5.32,4.9,10.88,10.03,13.22l.12.05c.18.08.37.15.55.22,1.19.49,2.36.71,3.45.8-2.78,2.33-5.55,4.81-7.98,7.78-4.73,5.22-5.02,13.68-2.85,19.35,2.76,7.43,10.25,11.57,16.46,12.39,1.09.17,2.17.25,3.3.25,1.94,0,3.81-.26,5.57-.61v.07c.13,2.8.22,4.57.42,5.65.44,2.34,1.5,4.92,2.2,6.63.02.06.05.12.07.17-1.38.87-3.42,1.7-4.21,1.91-1.1.13-2.28.19-3.16.24-.61.03-1.09.06-1.34.09-1.3.15-2.49.71-3.43,1.62-1.2,1.17-1.92,3.01-2.92,5.56-.4,1.02-.81,2.07-1.2,2.93-.33.5-.78.95-1.32,1.37-.68-1.22-1.78-2.11-2.48-2.67h0s-.11-.09-.11-.09c-1.75-1.4-4.44-1.45-6.39-.12-.29.2-.58.39-.87.58l-.23.15c-1.22.81-2.61,1.73-4.08,2.96-.97.81-1.67,2.03-1.99,3.38-.35.05-.69.13-1.02.27-2.3.95-4.91,3.64-5.12,6.35-.07.98-.21,2.78-.35,3.29-.04.05-.11.13-.24.28-1.57,1.74-2.02,4.87-.03,6.87,1.35,1.35,6.57,2.75,7.6,2.75h.25l.64-.08.29-.09c.33-.1.63-.22.9-.37l1.21.11c.64.06,1.37.22,2.25.41,1.37.3,2.93.63,4.6.63,1.79,0,3.43-.4,4.88-1.18,2.64-1.27,3.94-3.51,4.9-5.16.28-.47.56-.96.83-1.34.15.04.3.08.43.11.72.19,1.61.43,2.6.48,4.24.23,7.95-2.17,9.78-3.62.72-.57,1.41-1.21,2.03-1.79.69-.65,1.41-1.32,2.03-1.75.65-.26,1.52-.39,2.6-.39,1.84,0,3.94.39,5.66.71,3.72.94,7.7.5,10.71-1.21,1.62-.92,3.24-1.77,4.55-2.45l.22-.12c.72-.38,1.35-.71,1.85-.99,3.05-1.67,5.35-5.31,6.75-8.08.68-1.36,1.71-3.89,1.99-4.59.28.02.56.02.86.02h0c1.99,0,4.08-.33,5.92-.62,1.27-.2,2.47-.39,3.38-.43h.16c.36-.04.73-.06,1.1-.06,1.84,0,4.51.22,6.51.44,1.68.19,2.81.35,5.02.45.3.01.62.04.96.07.7.06,1.5.12,2.36.12,2.25,0,4.08-.53,5.59-1.27.43.42,1.13,1.4,1.6,1.81-.07,0-.14,0-.21,0-1.44,0-2.76.58-3.68,1.56-1.25-.6-3.31-.6-5.2-.45-2.23.18-4.24.51-6.49.99-1.67.36-2.89,1.17-3.58,2.69-.71,1.57-.61,3.37.27,4.93,1.16,2.06,2.27,3.93,3.45,5.9l.52.87c.54.91,1.87,2.43,4.69,2.43.35,0,.73-.02,1.16-.05.04,0,.08,0,.12,0,.07.13.15.26.22.4.85,1.53,1.9,3.42,3.78,4.91,1.89,1.62,4.51,2.55,7.2,2.55,1.19,0,2.35-.18,3.46-.52,5.1-1.6,10.09-3.25,14.95-5.74h.64s.4-.02.4-.02c.31-.03.63-.06.95-.08,1.95-.14,4.9-.36,7.16-2.74l.21-.22.17-.25c.89-1.29,1.7-2.58,2.46-3.89.03.15.08.31.13.47l.03.1c1.15,3.36,4.6,4.87,7.52,4.87h.17c3.31-.15,6.18-1.19,8.72-2.11l.17-.06c.36-.13.71-.26,1.08-.39l.25-.1c1.92-.83,4.72-.97,8.11-.42l.43.07.44-.03c3.56-.23,6.31-1.95,8.58-3.79,4.3,4.53,9.76,6.83,16.24,6.83.24,0,.48,0,.73,0l1.05-.08.29-.07c2.12-.5,3.54-2.11,3.73-4.2.04-.41.02-.82-.05-1.21.39-.04.78-.11,1.16-.19,2-.44,3.49-1.99,3.8-3.95.33-2.11-.62-3.99-2.47-4.92ZM731.41,267.31c-.18.17-.38.35-.57.52-1.06.97-2.42,2.21-3.47,3.78-.76-1.28-1.27-2.21-1.68-3.07,1.74-.25,3.47-.78,4.87-1.4.3,0,.6-.02.9-.04-.02.07-.04.14-.05.2Z" fill="#000000"/>
        </g>
        <g>
          <path class="cls-1" d="M588.89,288.2c-.08,0-.15.01-.22.04-1.23.5-2.65,2.1-2.72,3.05-.31,4.16-.43,4.6-1.57,5.87-.32.35-.53,1.17-.17,1.54.32.32,4.41,1.62,4.86,1.62h.09c.37-.12.67-1.06,1.5-3.92.45-1.54.95-3.29,1.52-4.88.04-.1.04-.25-.33-.78-.48-.68-2.06-2.53-2.95-2.53ZM593.41,288.13c.31.26.81.6,1.52.6.4,0,.83-.11,1.28-.34,2.31-1.16,4.7-5.45,4.8-5.7.25-.69-.54-1.33-1.55-2.13l-.12-.09c-.44-.35-1.25-.31-1.78.06-.37.25-.75.5-1.12.75-1.2.79-2.43,1.61-3.74,2.71-.47.4-.73,1.16-.78,1.74-.04.46.04.83.24,1.05.11.12,1.06,1.18,1.26,1.35ZM785.53,281.52c-1.16-.58-2.52-1.26-2.52-1.26-2.98-1.74-4.71-4.63-6.37-7.43-.65-1.1-1.33-2.23-2.06-3.26-.48-.71-1.3-1.44-2.02-2.08-.63-.56-1.22-1.1-1.33-1.39-2.73-7.45-5.7-16.2-6.42-25.93-.11-1.49-1.15-4.74-2.39-6.87-3.87-6.31-13.14-17.12-13.65-17.66-.32-.34-.68-.69-.98-.98l-.25-.24-16.68-13.86c-3.32-2.32-4.33-2.74-6.72-3.61-1.53-.56-3.35-.85-5.24-.85-2.36,0-4.72.45-6.66,1.28-1.33.7-2.62,1.53-3.88,2.33-2.13,1.36-4.33,2.77-6.73,3.57-1.86.84-3.87,1.46-5.82,2.06-3.78,1.17-7.69,2.38-10.79,5.23-.9.83-1.64,1.52-2.26,2.11-2.86,2.7-3.16,2.98-5.51,2.98-5.43,0-9.28,1.33-13.28,4.6-3.17,2.88-6.32,5.58-9.99,6.85-1.64.57-3.46.78-5.39.97-2.77.24-3.2.27-5.83.9-3.95.91-8.15,4.16-11.7,6.93-1.16.9-2.72,2.1-3.45,2.58-.38.25-.84.54-1.22.75-4.41,2.58-8.58,5.02-13.91,5.02-.13,0-.27,0-.39,0-3.98-.28-7.61-3.03-8.82-6.67-1.12-4.1.08-8.29,3.31-11.52,1.54-1.54,3.29-3.02,4.98-4.46,2.73-2.32,5.3-4.51,7.09-6.91,2.08-2.79,1.85-7.49-.49-10.05-2.33-2.56-7.54-3.83-9.5-4.31l-.34-.08c-.19-.05-.54-.09-.72-.13-1.24-.24-2.43-.41-3.65-.71-3.1-.85-5.5-3.24-8.24-4.72-1.06,1.62-1.41,3.38-1.27,5.36.53,4.14,3.97,8.44,7.8,10.18.16.07.32.13.49.19,1.21.52,2.49.59,3.68.59.26,0,.52,0,.77,0,.26,0,.51,0,.77,0,.74,0,1.62,0,2.43.2.74.19,1.51.93,1.62,1.86.06.55-.19.97-.89,1.52-.64.54-1.29,1.08-1.94,1.61-3.29,2.72-6.7,5.53-9.46,8.95-3.71,4-3.87,10.95-2.15,15.46,2.21,5.94,8.31,9.25,13.37,9.9.9.14,1.8.21,2.75.21,2.98,0,5.83-.72,8.58-1.41.1-.03.19-.04.26-.04.13,0,.36,0,.41.63.08,1.23.15,2.62.21,3.96.1,2.19.19,4.26.36,5.13.37,1.95,1.34,4.31,1.98,5.88.27.66.49,1.19.56,1.45.25.89.02,1.86-.58,2.4-2.09,1.91-6.33,3.44-7.11,3.53-1.26.16-2.59.23-3.57.28-.5.03-.89.05-1.1.07-.46.05-.85.23-1.17.55-.6.58-1.25,2.25-2.01,4.19-.46,1.17-.93,2.37-1.4,3.37-1.33,2.21-3.56,3.5-5.72,4.75-.54.31-1.08.62-1.59.94l-.06.06c-.89,1.41-1.78,2.75-2.92,3.76-.89.82-2.03,1.02-3.12,1.15h-.08s-.05.07-.05.07c-1.68,1.93-2.22,4.5-2.75,6.98-.08.38-.16.76-.25,1.14l-.07.35.22.02c.88.08,1.77.27,2.72.48,1.24.27,2.52.55,3.78.55,1.19,0,2.21-.25,3.12-.76,1.61-.74,2.47-2.22,3.3-3.65.55-.94,1.11-1.91,1.89-2.66.46-.5,1-.73,1.71-.73.63,0,1.32.18,1.98.36.61.16,1.24.33,1.84.36,2.97.16,5.79-1.7,7.17-2.79.6-.48,1.2-1.04,1.78-1.58.9-.84,1.83-1.71,2.82-2.33,1.21-.58,2.67-.86,4.47-.86,2.24,0,4.61.44,6.5.8,1.01.27,2.05.4,3.09.4,1.8,0,3.49-.41,4.87-1.19,1.66-.94,3.32-1.81,4.66-2.51.78-.41,1.47-.77,2.02-1.07,2.38-1.31,4.39-4.93,5.15-6.42.7-1.39,1.91-4.41,1.92-4.44l.06-.14-2.77-2.12-.11.19s-1.83,3.02-3.01,4.41c-4.88,6.66-12.85,7.51-19.23,7.51-.44-.02-.88-.02-1.32-.02-7.92,0-14.29,2.66-18.95,7.9-.22.25-.6.28-.76.08-.1-.13-.12-.33-.07-.57.13-.55.19-.71.52-1.32,4.96-7.03,13.41-8.07,20.23-8.2,5.04-.34,8.7-1.21,11.89-2.83,4.09-2.08,7.12-6.68,8.3-10.33.78-2.39,1.16-4.95,1.53-7.42.29-1.96.6-3.99,1.09-5.85.09-.26.35-.4.56-.4.06,0,.11,0,.2.04.26.04.75.23.75.61-.69,3.87-1.63,9.16.14,13.58.82,1.75,2.58,2.6,5.36,2.6,1.69,0,3.53-.29,5.31-.57,1.38-.22,2.68-.42,3.81-.48.47-.04.95-.06,1.44-.06,2.22,0,4.36.43,6.43.85,1.81.36,3.68.74,5.6.83.34.02.71.04,1.09.08.66.05,1.35.11,2.05.11,1.62,0,2.77-.32,3.61-1,.59-.48.38-1.19.12-2.1l-.05-.16c-.04-.15-.1-.32-.15-.51-.37-1.2-.94-3.01,0-3.84.13-.1.33-.17.52-.17.16,0,.36.05.44.29.11.35.2.69.3,1.04.41,1.45.84,2.94,1.77,4.22,1.94,2.48,4.95,4.84,8.69,6.79,2.4,1.66,5.31,4.45,5.54,8.34,0,1.76-1.71,2.99-2.98,3.76-2,1-5.15,2.21-7.06,2.12-1.28-.06-2.34-.88-2.42-.94-1.95-1.79-1.73-2.41-3-4.54-.68-1.13-1.37-2.3-2.26-3.34-1.22-1.35-2.75-1.86-4.81-1.69-1.99.16-3.82.53-6.01,1-.46.1-.8.36-.98.75-.2.43-.15.96.12,1.44,1.13,2.02,2.23,3.86,3.39,5.81l.52.87c.28.48.88.54,1.36.54.27,0,.56-.02.86-.04.32-.02.66-.05.99-.05,1.01,0,1.65.24,2.07.76.35.53.66,1.11.97,1.66.76,1.37,1.54,2.79,2.86,3.8,1.2,1.06,2.92,1.66,4.74,1.66.8,0,1.57-.12,2.3-.34,5.23-1.64,10.32-3.33,15.15-5.91h1.59c.35-.04.71-.07,1.07-.09,1.67-.12,3.4-.25,4.63-1.54,1.55-2.26,2.88-4.52,4.05-6.91,1.05-2.15,1.06-4.24.02-5.89-3.08-4.93-3.63-6.23-4.89-9.6l-.03-.09-.1-.03c-.37-.11-.73-.25-1.08-.39-.76-.3-1.54-.61-2.45-.61h-.12c-1.06.03-1.77.36-2.07.96l-.05.09,5.59,11.04c.36.87.77,1.74.56,3.02-.22,1.29-2.97,5.6-3.79,6.16-.2.14-.36.2-.48.2-.07,0-.36-.06-.17-.71.52-1.79,1.18-6,1-7.36-.2-1.57-4.89-9.32-5.09-9.65l-.08-.14c-.72-1.18-1.47-2.4-1.41-3.84,0-.66.61-1.12,1.06-1.29.82-.31,1.59-.42,2.43-.61,1.99-.44,4.05-.89,4.78-2,2.24-3.41,3.58-6.96,4.46-11.88.04-.22.19-.63.5-.63.18,0,.36.06.44.49.82,4.66-.29,9.55-3.06,13.42-.16.22-.28.66-.2,1.07.07.4.51.71.51.71,1.08.73,5,.31,7.84-1.18,2.17.05,4.22-.34,6.2-.71.63-.12,1.25-.24,1.87-.34.2.11.35.29.39.43-1.66,1.89-2.69,4-3.21,6.65-.46.47-.98.94-1.48,1.4-1.83,1.67-3.79,3.54-3.88,5.93,0,0-.06.85.87.92.29.02.62-.13.94-.26.34-.14.7-.28.97-.24.3.05.51.28.53.59l-2.08,3.05c-.78,1.27-.45,2.63-.13,3.94.23.73.13,1.29.32,1.93.52,1.52,2.37,2.24,3.85,2.24,2.72-.12,5.18-1.01,7.57-1.88.43-.15.85-.31,1.29-.46,2.62-1.13,6.11-1.37,10.27-.69,3.34-.21,5.86-2.42,8.29-4.57,1.04.03,2.12.65,3.22,1.83,3.61,3.88,8.05,5.77,13.55,5.77.2,0,.41,0,.62,0l.56-.04c.57-.13.72-.41.76-.77.04-.43-.29-.85-.91-1.15l-3.08-1.64c-2.46-1.57-5.15-3.45-5.89-5.94-.8-2.65-2.29-5.35-3.4-7.15-.22-.35-.46-.7-.71-1.07-.44-.63-.89-1.27-1.2-1.95h.01c3.36,1.19,5.24,3.68,7.5,7.81,1.68,3.08,6.07,6.4,10.23,6.4.55,0,1.08-.06,1.59-.17.45-.1.74-.38.8-.76.05-.34.01-.66-.37-.85ZM725.56,231.84c-.09.33-.29.54-.51.54-.1,0-.33-.05-.42-.46-.87-4.46-1.4-6.65-2.42-8.7-.33-.66-.73-1.21-1.08-1.7-.75-1.02-1.39-1.91-.67-3.1.21-.35.75-.59,1.33-.59.28,0,.55.06.78.17.86.41,1.69,1.45,2.55,3.18,2.15,4.39.45,10.61.43,10.67ZM753.59,276.25s-.13,1.26-.73,1.8c-.59.54-2.72.83-3.83.79-1.11-.04-1.5-.2-1.73-.54-.26-.38.16-1.13.16-1.13.13-.28,1.45-2.99,4.08-3.7,0,0,.85-.31,1.66.09.81.4.43,2.42.4,2.7ZM761.21,258.72c-.16,1.03-.41,1.53-.54,1.77-.14.24-.37.79-1.14.79-.84,0-.78-.99-.78-1.12,0,0-.1-2.74-.62-3.89-.57-1.26-3.33-4.8-4.92-4.65-.4.04-1.44.66-2.21,1.66-.93,1.21-.93,1.36-1.22,1.55-.29.18-.66.09-.79-.63-.13-.71-.25-1.3.08-2.67.33-1.37.67-1.67,1.07-2.65,0,0,.83-1.92,1.14-2.39.85-1.3,2-1.21,2-1.21.31.02,1.29-.11,2.35,1.22,1.22,1.53.96,1.39,1.31,1.94.34.54.71,1.11,1.72,2.21,1.01,1.1,2.13,3.25,2.44,4.58.31,1.33.29,2.46.13,3.49ZM695.23,281.09c.43.62.84,1.53,1.24,2.41.63,1.39,1.17,2.59,1.81,2.8.26.08.56.12.9.12,1.45,0,3.47-.79,4.92-1.92.82-.69.56-1.14.19-1.77-.12-.2-.25-.42-.38-.71-.39-.76-.62-1.55-.82-2.24-.4-1.4-.74-2.6-2.25-2.38-2.15.31-4.23.45-6.56.45-.03,0-.76,0-.98.51-.26.59.33,1.13.95,1.7.35.32.72.66.97,1.02Z" fill="#000000"/>
          <path class="cls-1" d="M995.37,296.32c-.24-.52-.47-1-.55-1.35-.14-.63-.22-1.31-.3-1.96-.13-1.05-.26-2.04-.58-2.8-.39-.92-1.47-1.62-2.51-1.62-.37,0-.72.08-1.04.25-1.57.78-2.49,1.62-2.24,3.38.85,2.57,1.29,4.42,1.85,6.94.07.39.33,1.66.94,1.66.04,0,.09,0,.14-.02l4.49-1.48c.23-.07.39-.21.48-.41.26-.59-.21-1.61-.67-2.59ZM988.7,285.22c-.9-1.3-2.48-2.35-3.74-3.19-.58-.39-1.09-.72-1.44-1.03l-.25-.19c-.3-.25-.64-.38-1.03-.38-1.42,0-2.98,1.71-3.01,2.3-.05.86,1.18,2.38,2.78,4.29l.34.41c.81.96,1.68,1.48,2.6,1.55h.01c.93,0,1.66-.31,2.45-1.04.58-.54,1.87-1.88,1.29-2.72ZM883.21,278.67c-.86.11-1.64.16-2.45.16-.46,0-.87-.02-1.25-.03-.34-.01-.65-.02-.95-.02-.51,0-.92.03-1.33.11l-.09.02-.05.08c-.07.12-1.65,2.89-1.43,4.62.23,1.88,2.15,2.27,3.6,2.56.52.1,1.13.22,1.73.22,1.04,0,1.73-.35,2.08-1.04.87-2.25,1.38-4.1,1.63-5.8.06-.26-.03-.44-.12-.55-.24-.3-.74-.35-1.02-.35-.12,0-.24,0-.35.02ZM985.17,291.91l-.06-.13h-.14c-2.6.17-4.22-1.94-5.77-3.97-.51-.67-1-1.31-1.52-1.86-.81-.94-1.7-1.72-2.49-2.42-.91-.8-1.7-1.5-2.01-2.13-.37-.76-.77-2.23-1.15-3.66-.28-1.02-.54-1.98-.78-2.64-.05-.13-.1-.27-.16-.41-.47-1.25-1.05-2.82-2.67-3.09-.82-.13-1.69-.17-2.54-.21-2.35-.1-4.71-.51-5.92-2.19-1.12-1.55-.65-2.98-.03-4.52.27-.67.47-1.24.63-1.89.85-2.83,1.13-6.36.49-8.83-.1-.4-.23-.79-.36-1.17-.34-1.03-.74-2.59-.48-3.07.26-.48.53-.56,1-.56.41,0,.88.13,1.33.26.32.09.57.14.87.21,1.17.28,2.91.6,4.5.6,2.64,0,5.41-.57,7.8-1.6,4.52-2.2,8.98-7.15,8.76-13.27-.59-6.21-4.43-12.21-11.74-18.34-.18-.15-.36-.3-.55-.46-.95-.78-2.09-1.77-2.13-2.66-.03-.88,2.25-1.41,3.68-1.74.33-.08.63-.14.88-.21l.37-.1c1.82-.48,3.7-.97,5.25-2.04,5.22-3.5,5.02-9.69,4.44-13.09-.03-.08-.05-.2-.08-.32-.1-.45-.22-1-.62-1-.13,0-.26.06-.39.18-.15.14-.31.29-.47.44-.59.56-1.26,1.2-2.03,1.64-1.65.98-3.65,1.39-5.57,1.8-1.22.26-2.49.52-3.67.93-5.18,1.79-8.4,4.41-9.56,7.81-.6,1.76-.28,3.99.88,6.13,1.69,2.68,4.15,5.03,6.52,7.3,3.74,3.58,7.6,7.28,8.5,12.31.49,2.93-.7,5.39-3.63,7.53-1.53.93-3.49,1.42-5.67,1.42-2.67,0-5.56-.72-7.92-1.99-3.03-1.52-5.96-3.48-8.8-5.37-4.26-2.85-8.67-5.8-13.56-7.36-2.12-.96-4.47-1.44-6.75-1.9-3.24-.66-6.58-1.33-9.26-3.43-.92-.6-1.84-1.26-2.72-1.9-2.44-1.76-4.95-3.58-7.8-4.31-1.06-.36-2.1-.51-3.11-.66-1.56-.22-3.03-.43-4.37-1.4-.61-.44-1.23-.89-1.84-1.34-2.27-1.66-4.61-3.37-6.96-4.55-4.03-2.01-8.33-3.05-13.12-4.09-1.53-.36-2.48-1.52-3.49-2.75-.68-.82-1.38-1.68-2.26-2.28-3.7-2.93-7.05-4.88-11.37-4.88-.4,0-.81.02-1.22.05-2.26.15-4.48,1.87-5.95,3.15-4.31,3.78-8.95,7.13-13.43,10.38-6.68,4.83-13.58,9.83-19.48,16.28-5.8,5.99-7.92,13.48-9.96,20.72-.3,1.07-.6,2.13-.92,3.2-.55,1.97-1.06,4.01-1.55,5.99-2.66,10.68-5.41,21.34-16.08,28.27-.7.46-.46,1.35.21,1.6.28.11,5.37,1.63,9.21-2.87,2.79-3.27,4.2-6.42,7.42-9.88.11-.11.48-.46.78-.37.22.07.32.2.22.59-.37,1.39-1.26,2.6-2.08,3.78-.84,1.2-1.7,2.45-2.13,3.88-1.02,3.06-3.88,5.54-6.41,7.73,0,0-.4.26-.63.55-.24.29-.22.42-.22.42-.07.68.47,1.09,1.54,1.14h0c5.98,0,10.23-4.25,14.35-8.37.18-.18.4-.26.69-.26.22,0,.38-.03.66.11.28.14.91.76,1.39,1.19,1.35,1.2,2.74,2.44,4.53,2.81h.03s.04,0,.04,0c2.18-.3,4.15-.55,6.16-.55.58,0,1.14.02,1.63.06,2.18.66,4.36,1.48,6.47,2.27,1.49.56,3.03,1.14,4.57,1.66h.04s.04.01.04.01c1.99-.07,3.42-1.93,4.46-3.57.49-1.16.26-2.3.03-3.41-.14-.68-.27-1.33-.24-1.96.37-.19.87-.15,1.41-.07.47.07,1.17,0,1.4-.03.52-.07,1.07-.68.92-1.46-.4-1.99-1.4-3.23-2.39-4.76-.87-1.3-1.7-2.53-2.12-3.92-.66-1.83-2.05-3.34-3.4-4.81-1.56-1.7-3.03-3.3-3.47-5.35,0,0-.14-.43.02-.59s.57.03.57.03c.71.52,1.44,1.11,2.13,1.68,2.27,1.84,4.61,3.75,7.46,4.18,2.66.26,5.56.59,8.39.36.75-.12,1.13-.78.95-1.41-1.13-2.39-2.29-4.96-3.01-7.77-.6-2.11-1.93-7.68-.57-11.87.13-.41.41-.55.65-.55.03,0,.06,0,.1.02.46.11.77.65.83,1.09l.04.55c.4,5.72.78,11.12,4.28,15.72.93,1.48,2.27,2.27,3.56,3.04.89.53,1.91.99,2.56,1.82.73.93.86,2.52.35,3.5l-4.29,6.33c-1.01,1.44-1.99,2.99-2.35,4.57-.32,1.6-.18,3.14-.05,4.64l.03.36c-.1-.04-.22-.17-.32-.35-1.73-3.13-2.08-5.78-1.2-7.81.57-1.32,4.06-6.27,5.08-7.89.33-.52.59-1.04.31-1.4-.34-.44-2.96-1.57-3.65-1.57-.05,0-.1,0-.14.02-.61.18-1.01.74-1.36,1.24-.07.11-.15.21-.24.34l-5.29,9.6-.12.36c-.31.96-.58,1.79-.31,2.9.29,1.44.74,2.99,1.07,4.12.09.31.18.63.27.94.47,1.66.91,3.23,1.65,4.1.47.55,1.05.8,1.83.8.4,0,.81-.06,1.21-.13.66-.1,1.37-.19,1.92-.05.8.2,1.35.79,1.93,1.42.58.63,1.19,1.28,2.06,1.53,1.63.55,3.35,1,5.01,1.43,2.21.58,4.5,1.18,6.67,2.02,1.23.39,2.54.77,3.82.76,1.41,0,2.28-.39,3.51-1.39,1.72-1.39,2.28-2.77,2.71-4.76.34-1.83.94-1.95,2.27-2.03.64-.03.74,0,1.36-.21.66-.22,2.57-2.56,3.57-4.48.27-.52.57-1,.84-1.41.3-.45.42-.83.42-1.21-.01-.94-.8-1.25-1.31-1.26h-.33s-5.65-.04-7.19-.01c-2.32.13-3.33,2.35-4.14,4.32-.31.76-.61,1.48-1,2.11-.61,1.11-1.81,1.78-3.28,1.75-.43-.01-1.38-.26-1.87-.38-3.05-.75-6.2-1.52-7.48-4.55-.12-.52-.33-1.6.45-2.5,1.63-1.89,3.77-4.27,5.98-5.99,3.06-.64,6.13-2.91,7.81-5.77.35-.49.53-1.07.72-1.63.28-.86.54-1.67,1.32-2.18.5-.25.89-.16,1,.27.29,1.59-.31,3.12-.9,4.61-.13.34-.26.67-.38.99l-.08.24.25.03c.84.08,1.72.13,2.59.13,3.14,0,6.13-.54,9.03-1.06,2.87-.52,5.84-1.05,8.91-1.05.33,0,.65,0,.99.02,1.36,0,2.69.12,3.97.23,1.26.11,2.55.23,3.86.23.46,0,.9-.01,1.32-.04,3.92-.18,6.78-1.96,7.63-4.78.81-2.4.73-6.55-.26-12.35-.05-.28-.08-.46-.08-.49,0-.03,0-.07,0-.11,0-.22.01-.44.29-.59.36-.19.75,0,.94.47,1.49,4.16,2.35,8.97,2.8,12.27.5,3.2,1.85,6.45,4.11,9.92,2.81,4.19,7.44,6.59,12.68,6.59,1.22,0,2.45-.23,3.66-.39.85-.11,1.16-.06,1.73-.06,6.68,0,12.5,2.89,16.83,8.37,0,0,.08.1.07.27-.01.23-.34.46-.63.33l-.57-.44c-3.77-2.92-7.67-5.94-12.55-6.54-.87-.16-1.77-.23-2.76-.23-1.41,0-2.8.16-4.14.31-1.34.15-2.61.3-3.9.3-1.67,0-3.07-.25-4.42-.79-5.63-1.85-10.22-8.32-11.69-12.34-.07-.14-.27-.38-.59-.38-.15,0-.31.05-.47.15-.65.41-.76.63-.86,1.03-.08.34.46,3.22.7,4.45.74,3.07,1.24,6.67,5.79,9.62,3,1.95,3.89,2.72,7.2,3.22.56.08,1.95.04,2.5-.11,1.42-.31,2.88-.47,4.35-.47,4.63,0,9.34,1.58,13.29,4.46.67.38,1.29.9,1.89,1.41.85.72,1.73,1.46,2.77,1.84.66.27,1.37.4,2.11.4,1.79.01,2.25-.54,3.52-1.17.56-.28,1.13-.37,1.5-.37,1.44,0,2.24,1.12,3.25,2.54.61.85,1.3,1.82,2.23,2.67,1.31,1.27,3.12,1.43,4.54,1.43.77,0,1.56-.06,2.33-.11.74-.05,1.63-.07,2.09-.12.46-.05.72-.12.72-.12l-.02-.18c-.33-2.7-1.05-5.24-2.26-7.98ZM835.13,278.51c-.27.47-.89.75-1.71.75-.72,0-1.48-.21-1.95-.54-1.07-.76-1.69-2.05-1.79-3.71-.02-.38-.04-.78.47-1.17.27-.15.41-.15.72-.15,1.02,0,2.66.66,3.54,1.72.06.08,1.42,1.88.72,3.11ZM836.61,254.92c-.38.5-.96.86-1.53.58-.53-.19-1.01-.87-1.3-1.4-.37-.65-.67-1.23-1.54-1.16-.06,0,0,0-.14.01-.77.07-1.35.45-1.96.92-.31.24-1.54,1.16-1.85,1.42-1.67,1.41-3.36,2.87-3.76,4.85q-.17.72-.23,1.05c-.12.69-.25,1.41-.83,1.78l-.05.02c-.08.02-.17.04-.26.04-.25,0-.51-.1-.72-.28-.21-.18-.34-.37-.35-.67-.3-3.41.86-6.47,3.24-8.64,1.55-1.27,2.79-2.87,4-4.41.59-.75,1.19-1.53,1.82-2.25.48-.48,1.26-.07,2.55,1.33.54.59,2.22,3.45,2.99,5.33.28.83-.09,1.46-.09,1.46ZM864.77,215.35c-.65.61-1.32,1.23-2,1.85-2.39,2.18-4.85,4.43-6.48,6.98-.77,1.04-1.33,2.24-1.88,3.41-.06.12-.19.39-.46.39-.12,0-.24-.06-.36-.17-.46-.46-.08-3.67.52-5.27,1.32-3.56,4.31-7.28,8.22-10.21.41-.26.94-.41,1.44-.41.74,0,1.3.34,1.53.92.48.79.3,1.7-.54,2.54Z" fill="#000000"/>
        </g>
      </g>
    </g>
  </g>
</svg>