<svg width="500" height="257" version="1.1" viewBox="0 0 500 257" xmlns="http://www.w3.org/2000/svg">
 <path d="m427.48 6.589h-15.917l-18.095 52.119h13.894l2.5639-8.7865c3.0977 0.90756 6.4097 1.4597 9.6936 1.4597 3.284 0 6.5784-0.55215 9.6938-1.4597l2.5639 8.7865h13.894zm-7.8709 33.826c-2.3778 0-4.5659-0.36495-6.5784-0.91669l6.5784-22.663 6.5784 22.663c-2.0125 0.5518-4.3868 0.91669-6.5784 0.91669zm-178.64-33.826h-15.916l-18.293 52.119h13.895l2.564-8.7865c3.0971 0.90756 6.4098 1.4597 9.694 1.4597s6.578-0.55215 9.6937-1.4597l2.564 8.7865h13.895l-18.106-52.119h-0.0211zm-8.0377 33.826c-2.3768 0-4.5662-0.36495-6.5781-0.91669l6.5781-22.663 6.578 22.663c-2.0118 0.5518-4.2013 0.91669-6.578 0.91669zm-126.71-33.826h-15.916l-18.106 52.119h13.895l2.564-8.7865c3.0971 0.90756 6.4094 1.4597 9.6937 1.4597 3.2842 0 6.578-0.55215 9.694-1.4597l2.564 8.7865h13.895c-0.18715 0-18.293-52.119-18.293-52.119h-0.0211zm-8.0472 33.826c-2.3767 0-4.5662-0.36495-6.5781-0.91669l6.5781-22.663 6.578 22.663c-2.0213 0.5518-4.2013 0.91669-6.578 0.91669zm25.769-33.844h40.048v11.163h-14.447v40.975h-12.249v-40.956h-13.352zm61.261 0.01887v40.788h16.637l-3.8455 11.331h-24.871v-52.119zm172.61 36.586c0 9.6937-5.8374 16.272-20.284 16.272-10.424 0-15.917-2.3767-20.118-4.3885v-12.435c5.3056 3.0971 13.343 5.4738 20.118 5.4738 5.8573 0 7.682-1.6374 7.682-4.3885 0-2.7508-1.8247-4.0327-10.059-5.8573-14.073-2.7416-17.554-8.7676-17.554-16.45 0-9.5069 6.9429-15.364 20.483-15.364 7.1299 0 13.175 1.4597 17.189 3.4806v11.884c-5.6711-2.5639-11.519-4.3885-17.554-4.3885-4.9406 0-7.6823 1.2725-7.6823 4.2013 0 2.3767 1.8246 4.0141 9.3197 5.6705 13.708 2.9288 18.46 7.1302 18.46 16.272zm25.959 15.533h-12.072v-52.119h12.072zm88.153-52.119 12.602 23.767 4.2041 9.8718v-33.639h10.976v52.119h-13.898l-15.728-29.26-4.5659-10.424v39.683h-11.165v-52.119zm-204.81 14.625c0 7.6823 3.4809 13.708 17.554 16.45 8.2341 1.8246 10.059 3.0971 10.059 5.8573 0 2.7606-1.8246 4.3885-7.6819 4.3885-6.7652 0-14.812-2.3767-20.118-5.4738v12.436c4.2013 2.0118 9.6937 4.3882 20.118 4.3882 14.625 0 20.286-6.578 20.286-16.085m0.0221 0.16828c0-9.1419-4.7535-13.343-18.462-16.272-7.495-1.6564-9.3196-3.2938-9.3196-5.661 0-2.9288 2.7417-4.2013 7.6823-4.2013 6.0259 0 11.884 1.8246 17.554 4.3882v-11.883c-4.0328-2.0118-10.059-3.481-17.189-3.481-13.54 0-20.473 5.8577-20.473 15.364m-208.03 34.631-27.351-54.702c-0.53343-1.1882-1.0667-1.394-1.7218-1.394-0.53344 0-1.1883 0.22441-1.8246 1.2911-3.8738 6.1288-5.5955 13.24-5.5955 20.67 0 10.34 5.268 20.034 13.025 35.632 0.86117 1.7217 1.5159 2.0494 3.0131 2.0494h18.948c1.3943 0 2.1523-0.5335 2.1523-1.6188 0-0.53351-0.10264-0.86085-0.65492-1.9465l0.02107 0.01888zm-39.73-25.835c-2.1522-3.2376-2.8072-3.4434-3.3405-3.4434-0.53343 0-0.86082 0.22476-1.8246 2.1523l-13.68 27.332c-0.4301 0.86085-0.53344 1.1882-0.53344 1.6188 0 0.86084 0.75791 1.7217 2.3767 1.7217h19.276c1.2913 0 2.2551-1.0856 2.8072-3.116 0.65492-2.5825 0.86082-4.8377 0.86082-7.5418 0-7.5418-3.3405-14.859-5.923-18.742z" fill="#1868db"/>
 <path d="m359.35 228.18-12.574 20.149-12.732-20.149h-3.5776v28.678h4.1856v-20.785l11.038 17.302h2.0137l11.038-17.434 0.0364 20.916h4.1961l-0.0487-28.678zm-54.718 4.1571 6.5823 14.072h-13.172l6.5823-14.072zm-2.1438-4.1571-13.829 28.687h4.4948l3.3527-7.1717h16.243l3.3527 7.1717h4.5862l-13.874-28.687zm-43.676 0v28.678h22.172v-3.5576h-17.807v-9.2598h15.315v-3.4827h-15.315v-8.8103h17.189v-3.5674zm-35.249 0v3.5674h10.466v25.11h4.3262v-25.11h10.466v-3.5674zm-38.942 0v3.5674h7.6507v25.11h4.3261v-28.678zm-28.61 0v28.678h4.3613v-11.591h15.319v-3.5203h-15.319v-9.9993h17.199v-3.5674zm343.99-42.385c-0.0282 6.1328-2.9661 12.425-8.5925 16.038-6.4242 4.1199-14.936 6.3947-23.95 6.3947-14.672 0-31.207-6.8441-31.404-22.274v-2.4621h24.98s-0.0364 1.2638 0.36539 2.2562c0.83289 2.0598 3.7639 4.0822 6.7334 4.0822 3.6514 0 6.7299-1.6664 6.7299-3.6422 0-1.0764-0.43947-1.451-1.3566-1.8257-1.4971-0.61758-4.0274-1.0578-6.8915-1.4043-6.0025-0.73978-14.184-2.0784-21.648-6.8536l-0.10218-0.0748c-2.808-1.9754-4.8955-4.0727-6.3644-6.4133-1.6482-2.6217-2.4811-5.5522-2.4811-8.6979 0-6.0857 3.3492-11.572 9.4464-15.449 2.931-1.8629 6.4031-3.3049 10.318-4.2973 3.9395-0.99245 8.2481-1.4043 12.789-1.4043h0.0847c3.2683 0.0748 6.751 0.43999 10.065 1.2265 3.6795 0.8705 7.0216 2.1065 9.9314 3.67 3.3421 1.7976 5.9744 3.9606 7.837 6.4323 2.1156 2.8086 3.184 5.9641 3.184 9.3814v2.5746h-26.579s0.17553-1.7789-0.54494-2.8649c-0.37239-0.60851-1.6939-1.7135-4.3719-1.7135-1.9574 0-3.0152 0.27173-3.8482 0.78644-0.43246 0.26202-0.92778 0.7117-0.92778 1.8728 0 0.65532 0.16818 1.3667 2.1929 2.2094 2.077 0.86141 5.1942 1.4887 8.7999 2.2003 5.6545 1.1235 11.246 1.8352 17.357 4.9432l0.0952 0.0489s0.0847 0.0489 0.095 0.0559c5.9252 3.3049 8.0862 8.3229 8.0581 15.205m-207.25-40.476c-1.8837-1.217-3.7462-2.1532-5.8619-3.0054-4.3156-1.7319-8.8772-2.5278-13.558-2.5278h-0.19681c-4.7724 0.028-9.4078 0.87085-13.762 2.687-4.1961 1.7508-7.9494 4.2319-11.179 7.3966-3.2121 3.1457-5.7283 6.8065-7.489 10.87-1.8169 4.2039-2.7341 8.6508-2.7341 13.248 0 4.6066 0.92778 9.0821 2.7517 13.295 1.7712 4.0727 4.3086 7.743 7.5382 10.889 3.2367 3.1647 7.0286 5.6458 11.242 7.378 4.3824 1.8071 9.0353 2.7152 13.829 2.7152 4.7935 0 9.2426-0.88 13.558-2.6217 2.077-0.84241 4.0063-1.8257 5.8619-3.0054v4.0073h24.024v-65.548h-24.024zm-1.0121 28.341c0 7.3217-6.6667 13.267-14.859 13.276-8.1919 0-14.859-5.9547-14.859-13.276 0-3.5298 1.5358-6.8536 4.3156-9.3533 2.7728-2.4906 6.4699-3.8854 10.402-3.9136h0.14055c8.1919 0 14.859 5.9547 14.859 13.276m-165.61-13.838v46.795h24.027v-64.219h-10.121zm52.107-36.589h-24.027v83.384h24.027zm32.142 16.535h24.024v-12.059c0-2.4716-2.0032-4.4755-4.4772-4.4755h-19.547zm24.024 2.6312h-24.024v64.219h24.024zm-28.079-19.166h-24.024v83.384h24.024zm209.28 18.463c-5.8443-2.0221-12.567-2.5089-18.903-1.3481-5.8162 1.0582-11.151 3.923-15.635 7.3871-1.5288-1.6008-3.3422-2.9678-5.4332-4.0914-2.815-1.5073-6.0376-3.0336-9.5941-3.5393-4.421-0.6273-9.1478-0.41185-13.671 0.61814-2.5092 0.57106-4.8674 1.8724-6.9935 2.8649v-2.5092h-24.024v65.539h24.024v-36.046c0-6.8628 5.1871-9.9902 10.009-9.9902 2.5479 0 4.8954 0.84277 6.6281 2.3596 2.0242 1.7789 3.082 4.4192 3.082 7.6211v36.046h24.024v-36.046c-0.0698-6.797 4.4947-9.9807 9.9244-9.9898 2.4635 0 4.7198 0.88 6.375 2.3592 1.9575 1.7508 2.9872 4.4192 2.9872 7.6215v36.046h24.017l0.0282-43.452c0-4.8402-1.6728-9.3625-4.8498-13.098-2.9274-3.4454-7.0779-6.6663-12.001-8.3704m-307.33-18.445-13.639 16.516h7.3027l-16.946 21.225v-37.731h-17.312c-4.8884 0-8.5503 1.91-10.852 4.8311l-28.463 35.653v-40.484h-28.361v83.384h27.218l29.306-36.646v36.646h17.227c7.3941 0 10.624-1.1889 15.101-6.6007l61.293-76.783h-41.887zm141.58-34.408c-92.09 0-234.15 1.7594-249.85 1.9431v0.50503c15.698 0.18333 157.76 1.9431 249.85 1.9431 92.09 0 234.15-1.7597 249.85-1.9431v-0.50503c-15.698-0.18365-157.76-1.9431-249.85-1.9431z"/>
</svg>
